<svg xmlns="http://www.w3.org/2000/svg" width="36" height="36" viewBox="0 0 36 36">
  <defs>
    <style>
      .cls-1 {
        fill: #02d488;
      }
    </style>
  </defs>
  <path id="accept" class="cls-1" d="M18,74a18,18,0,1,1,12.728-5.272A17.882,17.882,0,0,1,18,74ZM7.8,55.212a1.977,1.977,0,0,0-1.4,3.376l5.874,5.875a1.979,1.979,0,0,0,2.8,0c.049-.05.092-.1.132-.147s.092-.079.148-.133L29.337,50.2a1.978,1.978,0,1,0-2.8-2.8L13.673,60.267,9.2,55.791A1.965,1.965,0,0,0,7.8,55.212Z" transform="translate(0 -38)"/>
</svg>
