<svg xmlns="http://www.w3.org/2000/svg" width="36" height="36" viewBox="0 0 36 36">
  <defs>
    <style>
      .cls-1 {
        fill: #f44336;
      }
    </style>
  </defs>
  <path id="wrong" class="cls-1" d="M18,74a18,18,0,1,1,12.728-5.272A17.882,17.882,0,0,1,18,74Zm-.21-15.412h0l5.595,5.595a1.978,1.978,0,1,0,2.8-2.8l-5.6-5.6,5.6-5.594a1.978,1.978,0,1,0-2.8-2.8l-5.6,5.594L12.2,47.4a1.978,1.978,0,0,0-2.8,2.8l5.594,5.594L9.4,61.386a1.978,1.978,0,0,0,2.8,2.8l5.594-5.595Z" transform="translate(0 -38)"/>
</svg>
